<svg xmlns="http://www.w3.org/2000/svg" xmlns:xlink="http://www.w3.org/1999/xlink" fill="none" version="1.1" width="256.0000305175781" height="256.0000305175781" viewBox="0 0 256.0000305175781 256.0000305175781">
    <defs>
        <clipPath id="master_svg0_328_46691">
            <rect x="0" y="0" width="256.0000305175781" height="256.0000305175781" rx="0"/>
        </clipPath>
    </defs>
    <g clip-path="url(#master_svg0_328_46691)">
        <g>
            <g>
                <path d="M123.51636916015624,90.70914037792969C123.36758916015626,90.58266737792968,123.25102916015625,90.48843287792968,123.16918916015625,90.42643737792969L120.92247116015625,93.39477737792969C120.11156616015624,94.44622737792969,120.10413416015625,95.42575737792968,121.08118316015624,96.23169737792969C124.55789916015625,99.09092737792969,130.08291916015625,99.97374737792968,133.86213916015626,99.97374737792968C134.69783916015626,99.97374737792968,135.48893916015624,99.9340673779297,136.22793916015624,99.86958737792969L135.72203916015624,94.17343737792969C130.86903916015626,94.60245737792968,126.75747916015625,93.43941737792969,123.51636916015624,90.70914037792969Z" fill="#000000" fill-opacity="1" style="mix-blend-mode:passthrough"/>
            </g>
            <g>
                <path d="M203.03866748046875,62.724033374023435C193.43666748046874,52.160013374023436,180.18266748046875,46.34483337402344,165.71266748046875,46.34483337402344C149.19766748046874,46.34483337402344,137.79466748046875,53.29576337402344,131.13366748046874,59.125833374023436C124.11376748046875,65.27083337402344,120.79086748046875,71.41833337402343,120.48336748046874,72.00603337402345C113.90686748046875,84.07033337402343,108.99186748046876,87.07583337402343,101.52506748046875,90.97913337402343C98.26416748046876,92.68273337402343,97.22506748046875,95.10553337402344,96.92006748046875,96.83643337402344C96.45636748046876,99.52453337402343,97.44576748046875,102.43093337402344,99.64536748046875,104.81903337402343C100.40416748046874,105.64473337402345,101.55986748046875,106.70363337402344,102.58646748046876,107.61373337402344L101.30686748046875,109.10163337402344C100.00746748046875,110.37873337402344,99.27346748046875,111.65333337402343,99.40736748046875,112.97763337402344C99.55856748046875,114.50763337402344,101.76816748046875,116.11953337402343,102.60386748046875,116.70973337402344C106.18966748046876,119.24413337402343,111.38486748046876,122.79773337402344,114.30366748046875,125.03203337402344C114.99796748046874,125.56513337402343,114.58626748046875,125.77343337402344,113.31666748046875,125.95693337402344L101.17546748046875,127.86143337402343L101.23746748046875,130.47523337402345C101.46316748046875,139.47693337402342,102.64356748046875,147.82883337402342,114.52186748046876,152.70183337402344C123.82366748046876,156.52083337402343,126.18686748046875,157.82783337402344,126.18686748046875,160.93683337402342C126.18686748046875,165.15283337402343,124.78576748046875,167.19883337402342,120.61966748046875,173.25983337402346C119.93526748046875,174.25383337402343,119.18886748046874,175.33783337402343,118.37796748046875,176.54283337402345C117.12066748046875,178.39983337402344,115.77166748046875,180.42883337402344,113.72336748046875,183.68483337402344C104.60996748046875,175.08983337402344,91.40746748046875,160.91483337402343,80.35486748046876,147.54383337402345L99.91076748046875,126.85713337402343L67.70786748046875,100.31313337402344L31.67108548046875,150.64383337402344C30.14847648046875,152.76583337402343,31.25943448046875,154.80683337402343,31.73308048046875,155.67783337402344L31.90666748046875,155.95783337402344C36.52161748046875,162.54683337402344,43.27666748046875,168.13383337402342,51.99076748046875,172.55483337402342L52.218867480468745,172.66183337402344C53.01486748046875,172.98383337402345,53.726567480468745,173.12283337402346,54.34656748046875,173.13283337402345C55.77246748046875,173.15783337402343,56.75446748046875,172.50783337402345,57.389267480468746,171.83583337402342L64.33526748046876,164.48583337402346C72.58806748046875,176.90283337402343,86.55936748046875,195.99983337402344,99.56356748046875,211.15383337402343L105.22496748046875,211.15383337402343C110.89386748046876,198.52183337402343,119.02766748046875,186.29383337402345,123.22596748046875,179.80883337402344C124.00466748046875,178.60583337402343,124.76846748046874,177.54683337402344,125.44046748046875,176.56283337402343C127.52846748046875,173.52283337402343,129.11806748046877,171.20383337402342,130.21416748046875,168.95683337402343C136.32666748046876,169.59883337402346,142.38466748046875,169.92383337402345,148.27466748046874,169.92383337402345C154.16466748046875,169.92383337402345,159.61466748046874,169.61183337402343,164.92866748046876,168.99883337402343C165.25366748046875,174.23383337402345,166.27066748046875,179.63283337402345,167.33966748046876,185.29683337402344C168.76066748046875,192.82283337402345,170.35766748046876,201.65883337402343,170.51866748046876,211.15383337402343L176.36866748046876,211.15383337402343C176.20966748046874,201.13483337402343,174.55566748046874,191.99483337402344,173.08766748046875,184.21283337402343C171.84566748046876,177.62683337402345,170.67266748046876,171.40683337402345,170.67266748046876,165.69583337402344C170.67266748046876,152.74183337402343,180.58466748046874,146.66583337402344,189.32566748046875,141.30953337402343C192.28866748046875,139.48933337402343,195.09066748046874,137.77333337402342,197.37966748046875,135.87873337402345C210.12366748046875,125.31463337402344,216.31566748046876,111.96333337402343,216.31566748046876,95.06333337402344C216.31566748046876,83.95133337402343,211.35866748046874,71.85973337402343,203.05166748046875,62.72153337402344L203.03866748046875,62.724033374023435ZM61.644667480468755,117.41393337402344C61.644667480468755,117.41393337402344,63.03336748046875,118.07113337402343,63.58386748046875,119.51193337402344C63.85166748046875,120.20873337402344,63.64836748046875,121.02703337402343,63.18216748046875,121.67673337402344C62.60686748046875,122.47783337402343,61.657067480468754,122.86213337402344,60.73956748046875,122.74813337402344C60.31796748046875,122.70343337402343,59.90386748046875,122.55213337402344,59.53686748046875,122.28683337402343L58.60196748046875,121.66193337402343L61.644667480468755,117.41393337402344ZM56.077467480468755,125.18823337402344C56.077467480468755,125.18823337402344,57.68196748046875,125.98923337402344,58.23246748046875,127.43003337402344C58.50026748046875,128.12683337402342,58.29696748046875,128.94513337402344,57.83076748046875,129.59483337402344C57.25536748046875,130.39583337402343,56.30566748046875,130.78023337402345,55.38806748046875,130.66613337402345C54.966567480468754,130.62153337402344,54.552367480468746,130.47023337402345,54.18536748046875,130.20493337402343L53.03476748046875,129.43613337402343L56.077467480468755,125.18823337402344ZM50.411067480468745,133.10383337402345C50.411067480468745,133.10383337402345,51.799767480468745,133.76093337402344,52.35036748046875,135.20173337402343C52.61816748046875,135.89853337402343,52.414767480468754,136.71693337402343,51.94856748046875,137.36663337402342C51.373267480468755,138.16763337402344,50.42346748046875,138.55203337402344,49.505967480468755,138.43793337402343C49.08436748046875,138.39323337402345,48.67026748046875,138.24203337402344,48.30326748046875,137.97673337402344L47.36836748046875,137.35173337402344L50.411067480468745,133.10383337402345ZM44.533967480468746,141.31203337402343C44.533967480468746,141.31203337402343,45.84076748046875,141.93203337402343,46.36156748046875,143.28843337402344C46.61196748046875,143.94313337402343,46.42106748046875,144.71683337402345,45.982167480468746,145.32933337402343C45.43906748046875,146.08563337402342,44.546367480468746,146.44483337402343,43.68086748046875,146.33853337402343C43.28406748046875,146.29643337402342,42.57986748046875,145.94423337402344,42.235167480468746,145.69633337402342L41.66726748046875,145.31683337402342L44.533967480468746,141.31443337402345L44.533967480468746,141.31203337402343ZM54.32176748046875,166.56183337402342C54.086167480468745,166.81183337402342,53.70676748046875,166.87383337402343,53.40426748046875,166.71283337402343C46.58716748046875,163.07283337402345,41.21346748046875,158.66283337402342,37.39947748046875,153.58683337402346C37.19860748046875,153.32183337402344,37.19860748046875,152.95483337402345,37.39203748046875,152.68483337402344L39.64866748046875,149.53483337402344C39.64866748046875,149.53483337402344,41.04476748046875,150.59183337402345,42.87246748046875,150.90383337402343C45.47626748046875,151.35283337402342,47.67836748046875,150.21183337402346,48.85876748046875,148.96183337402346C50.27716748046875,147.45683337402343,50.94926748046875,145.31943337402345,50.66156748046875,143.35043337402345C53.27036748046875,143.09003337402345,54.971467480468746,142.04853337402344,56.06756748046875,140.51593337402343C57.14376748046875,139.01323337402346,57.609967480468754,137.10123337402342,57.34966748046875,135.52903337402344C58.973867480468755,135.22153337402344,60.88586748046875,134.28423337402344,62.15056748046875,132.59043337402343C63.40786748046875,130.90663337402344,63.73266748046875,129.06913337402344,63.43016748046875,127.34073337402344C65.07916748046875,126.86213337402344,66.58696748046876,126.04373337402343,67.55906748046874,124.47153337402344C70.34136748046875,119.96823337402344,67.53176748046874,116.06493337402344,65.09906748046875,113.98433337402344L68.80886748046875,108.80903337402344L91.35036748046875,127.39033337402344L54.32176748046875,166.56383337402343L54.32176748046875,166.56183337402342ZM101.83016748046875,204.28683337402344C88.94006748046874,189.38083337402344,78.03136748046876,174.31383337402343,68.42206748046874,160.15883337402343L76.37726748046876,151.74183337402343C87.41496748046876,165.46783337402343,100.48116748046876,178.99083337402342,110.43266748046875,189.00883337402342C107.51146748046875,193.88183337402344,104.45376748046876,199.27983337402344,101.83016748046875,204.28683337402344ZM169.34366748046875,124.95013337402344L166.02266748046875,125.51553337402343L172.69866748046874,146.33113337402344C168.61666748046875,150.53983337402343,165.52466748046874,155.86883337402344,164.92666748046875,163.11683337402343C154.84666748046874,164.32983337402345,143.34266748046875,164.37183337402342,131.90066748046877,163.25383337402343C131.98266748046876,162.52183337402346,132.02666748046875,161.75783337402345,132.02666748046875,160.93683337402342C132.02666748046875,153.56983337402343,125.94386748046875,151.07283337402345,116.73636748046874,147.29283337402342C108.99186748046876,144.11423337402346,107.54866748046875,139.71993337402344,107.17666748046875,132.93763337402345L116.13126748046875,131.31333337402344C119.41446748046874,130.60413337402343,121.22726748046875,129.50063337402344,121.82486748046875,127.61843337402344C122.14976748046875,126.59673337402344,122.64326748046875,124.22603337402344,119.50626748046875,121.77103337402343C115.92546748046875,118.96883337402343,108.64716748046875,113.64213337402344,106.50456748046875,112.02033337402344L110.85666748046874,106.96903337402344L108.57276748046876,105.06443337402344C107.67256748046874,104.31313337402344,105.07866748046875,102.09113337402343,103.94296748046875,100.85623337402345C103.01296748046875,99.84693337402344,102.53196748046875,98.69383337402343,102.67576748046875,97.84073337402344C102.78736748046875,97.20843337402343,103.30806748046875,96.64053337402343,104.22816748046876,96.16193337402345C112.23306748046875,91.98093337402344,118.06796748046875,88.26123337402345,125.01896748046875,75.87703337402344L165.00366748046875,107.25663337402344L166.94066748046876,108.75693337402345L168.76566748046875,107.13013337402344C168.80766748046875,107.09293337402343,172.94666748046876,103.46253337402344,177.99066748046874,104.16183337402344C184.07866748046874,105.00743337402344,184.72566748046876,110.02903337402344,184.72266748046874,112.14683337402344C184.71066748046874,118.33403337402343,178.67466748046874,123.35813337402344,169.34366748046875,124.94763337402344L169.34366748046875,124.95013337402344Z" fill="#000000" fill-opacity="1" style="mix-blend-mode:passthrough"/>
            </g>
        </g>
    </g>
</svg>
